<?xml version="1.0" encoding="UTF-8"?>
<svg version="1.1" xmlns="http://www.w3.org/2000/svg" width="500" height="500">
<path d="M0 0 C6.38218108 2.65397629 11.99019411 2.59717803 18.59765625 0.9453125 C19.25765625 -1.6946875 19.91765625 -4.3346875 20.59765625 -7.0546875 C22.24765625 -7.0546875 23.89765625 -7.0546875 25.59765625 -7.0546875 C27.57765625 22.1503125 27.57765625 22.1503125 29.59765625 51.9453125 C27.12265625 52.4403125 27.12265625 52.4403125 24.59765625 52.9453125 C24.31792969 52.01332031 24.03820312 51.08132812 23.75 50.12109375 C18.0399426 31.69362378 8.86008353 15.70119943 -8.40234375 5.9453125 C-26.34252422 -3.30350935 -46.3483897 -4.46573882 -65.49853516 1.30810547 C-79.68866031 6.05755746 -90.2404242 17.03193929 -97.0234375 30.05859375 C-102.57421779 42.05990674 -105.96502963 55.69833908 -106.40234375 68.9453125 C-106.428125 69.61159668 -106.45390625 70.27788086 -106.48046875 70.96435547 C-107.44321226 99.17875736 -102.32307305 128.06023614 -85.35546875 151.203125 C-83.77667523 153.41975111 -82.51372683 155.47425863 -81.40234375 157.9453125 C-80.74234375 157.9453125 -80.08234375 157.9453125 -79.40234375 157.9453125 C-78.23891754 159.10873871 -77.07803879 160.27481672 -75.9296875 161.453125 C-65.27138717 171.86609361 -51.64610737 175.74412242 -37.02734375 176.2578125 C-25.3931867 175.97241471 -14.69337437 173.31821334 -5.8203125 165.5625 C3.59756724 154.69352701 2.19453792 135.81181252 2.06420898 122.50512695 C2.03486198 119.22492155 2.04372132 115.94630029 2.05664062 112.66601562 C2.05041269 110.56770051 2.04202919 108.46939042 2.03125 106.37109375 C2.03418564 105.39715164 2.03712128 104.42320953 2.04014587 103.41975403 C1.97149263 98.49991361 1.91960788 94.87360867 -1.40234375 90.9453125 C-6.63662463 88.32817206 -12.64639633 88.33450467 -18.40234375 87.9453125 C-18.40234375 86.6253125 -18.40234375 85.3053125 -18.40234375 83.9453125 C4.36765625 83.9453125 27.13765625 83.9453125 50.59765625 83.9453125 C50.59765625 85.2653125 50.59765625 86.5853125 50.59765625 87.9453125 C49.85 88.06648438 49.10234375 88.18765625 48.33203125 88.3125 C47.3471875 88.48007813 46.36234375 88.64765625 45.34765625 88.8203125 C44.373125 88.98273438 43.39859375 89.14515625 42.39453125 89.3125 C37.80743089 90.33995056 37.80743089 90.33995056 34.50723267 93.4743042 C33.15521469 97.14727501 33.28890205 100.79611635 33.27880859 104.66113281 C33.26876297 105.53953827 33.25871735 106.41794373 33.24836731 107.32296753 C33.21750455 110.2231176 33.20049152 113.12317522 33.18359375 116.0234375 C33.1648846 118.03555091 33.14531137 120.04765647 33.12490845 122.05975342 C33.0735546 127.35330572 33.03394621 132.64688346 32.99676514 137.94055176 C32.95674594 143.34324454 32.90564408 148.74583118 32.85546875 154.1484375 C32.75867091 164.7473213 32.6742784 175.34626499 32.59765625 185.9453125 C31.27765625 185.9453125 29.95765625 185.9453125 28.59765625 185.9453125 C27.17450198 183.09900396 27.3653201 180.49288473 27.22265625 177.3203125 C26.85016175 171.56734188 26.13326165 167.11794752 23.59765625 161.9453125 C20.46909149 160.38103012 18.07053494 160.66524164 14.59765625 160.9453125 C8.76694156 163.10717832 4.3647306 166.5914386 -0.15234375 170.7578125 C-20.19977816 188.50348448 -41.67552802 190.18700227 -67.40234375 188.9453125 C-83.166898 187.37486425 -98.72376157 179.39457024 -110.40234375 168.9453125 C-111.21574219 168.3265625 -112.02914062 167.7078125 -112.8671875 167.0703125 C-129.16840512 153.40642593 -137.07808015 130.4470716 -139.40234375 109.9453125 C-141.97613856 77.60202253 -137.63169665 46.64400286 -116.40234375 20.9453125 C-115.6959375 20.01203125 -114.98953125 19.07875 -114.26171875 18.1171875 C-113.648125 17.40046875 -113.03453125 16.68375 -112.40234375 15.9453125 C-111.74234375 15.9453125 -111.08234375 15.9453125 -110.40234375 15.9453125 C-110.40234375 15.2853125 -110.40234375 14.6253125 -110.40234375 13.9453125 C-98.56176269 3.03737995 -83.98615961 -4.2439732 -68.40234375 -8.0546875 C-67.53480469 -8.27898437 -66.66726562 -8.50328125 -65.7734375 -8.734375 C-42.86690197 -13.60243059 -20.98262354 -9.21188351 0 0 Z " fill="#000000" transform="translate(235.40234375,136.0546875)"/>
<path d="M0 0 C10.73663319 -0.48895483 22.27636836 2.30277234 31.74609375 7.21875 C41.43200511 12.29947695 41.43200511 12.29947695 52.05859375 12.78125 C54.87658147 10.17200211 55.02893872 6.92405099 55.74609375 3.21875 C57.06609375 3.21875 58.38609375 3.21875 59.74609375 3.21875 C59.74609375 23.67875 59.74609375 44.13875 59.74609375 65.21875 C58.42609375 65.21875 57.10609375 65.21875 55.74609375 65.21875 C55.58753906 63.98640625 55.42898438 62.7540625 55.265625 61.484375 C53.93017144 51.76026546 52.32379795 43.02202731 47.74609375 34.21875 C47.30394531 33.33832031 46.86179687 32.45789063 46.40625 31.55078125 C40.2307329 20.24325548 30.43577056 13.48000045 18.33203125 9.40625 C9.5576522 7.17389915 -1.98932573 6.82759278 -10.14453125 11.2421875 C-11.54027298 12.19752528 -12.9008025 13.20392219 -14.25390625 14.21875 C-14.91390625 14.21875 -15.57390625 14.21875 -16.25390625 14.21875 C-16.9416503 15.54133472 -17.60101998 16.87861503 -18.25390625 18.21875 C-18.79015625 19.146875 -19.32640625 20.075 -19.87890625 21.03125 C-23.06045416 28.6180181 -22.21771501 38.37609887 -19.69140625 46.03125 C-11.23577625 65.87849263 8.30428076 76.99949275 25.55859375 88.40625 C43.98195527 100.5911151 64.07297398 114.32922563 69.36889648 137.10791016 C71.6872814 150.08186226 69.91854125 163.67642293 63.12109375 175.03125 C54.88456883 186.2255295 42.92695915 191.28945103 29.6015625 193.82177734 C15.02497587 195.84824193 -1.54942481 195.98721795 -15.25390625 190.21875 C-15.88554687 189.9619043 -16.5171875 189.70505859 -17.16796875 189.44042969 C-21.23673971 187.78503687 -25.25655802 186.04124919 -29.25390625 184.21875 C-29.25390625 180.58875 -29.25390625 176.95875 -29.25390625 173.21875 C-28.59390625 173.21875 -27.93390625 173.21875 -27.25390625 173.21875 C-27.25390625 173.87875 -27.25390625 174.53875 -27.25390625 175.21875 C-26.66351563 175.49976563 -26.073125 175.78078125 -25.46484375 176.0703125 C-23.44823409 177.11780939 -21.72677541 178.28101037 -19.87890625 179.59375 C-7.82372958 187.06175466 6.81778933 187.96472653 20.5 185.55859375 C28.43880076 183.43360768 34.55314113 180.15755684 39.08203125 173.15234375 C43.12369682 165.14067335 43.56980372 157.1874705 41.24609375 148.59375 C39.41428487 143.18217377 36.90469415 139.19245927 33.13671875 134.92578125 C31.74609375 133.21875 31.74609375 133.21875 31.74609375 131.21875 C30.75609375 130.88875 29.76609375 130.55875 28.74609375 130.21875 C27.06087065 128.57084871 25.39720188 126.9008313 23.74609375 125.21875 C21.66240432 123.47008514 19.57606127 121.76610664 17.43359375 120.09375 C16.83619385 119.62509521 16.23879395 119.15644043 15.62329102 118.67358398 C10.28563966 114.53798851 4.76648695 110.69122121 -0.83520508 106.92333984 C-1.46966553 106.49617676 -2.10412598 106.06901367 -2.7578125 105.62890625 C-3.31283447 105.25902588 -3.86785645 104.88914551 -4.43969727 104.50805664 C-5.03838623 104.08258545 -5.6370752 103.65711426 -6.25390625 103.21875 C-7.14094238 102.63891357 -8.02797852 102.05907715 -8.94189453 101.46166992 C-11.25390625 99.21875 -11.25390625 99.21875 -11.8215332 96.28613281 C-11.79534912 95.17592773 -11.76916504 94.06572266 -11.7421875 92.921875 C-11.72969971 91.83551758 -11.71721191 90.74916016 -11.7043457 89.62988281 C-11.65882568 88.25670898 -11.61330566 86.88353516 -11.56640625 85.46875 C-11.46328125 81.09625 -11.36015625 76.72375 -11.25390625 72.21875 C-21.48390625 72.21875 -31.71390625 72.21875 -42.25390625 72.21875 C-42.91390625 70.56875 -43.57390625 68.91875 -44.25390625 67.21875 C-40.29390625 67.21875 -36.33390625 67.21875 -32.25390625 67.21875 C-32.33954834 66.15140625 -32.42519043 65.0840625 -32.51342773 63.984375 C-32.83726046 59.94379638 -33.15923711 55.90307146 -33.48071289 51.86230469 C-33.61889515 50.12854164 -33.75755061 48.39481622 -33.89672852 46.66113281 C-34.23300303 42.47044821 -34.56267852 38.27948028 -34.87792969 34.0871582 C-35.11798992 30.89755421 -35.38906554 27.71299369 -35.68457031 24.52807617 C-35.80572991 23.08515651 -35.92651828 21.64220561 -36.046875 20.19921875 C-36.16184326 18.93746826 -36.27681152 17.67571777 -36.39526367 16.37573242 C-36.25390625 13.21875 -36.25390625 13.21875 -34.84472656 11.01464844 C-32.76442225 9.21613834 -30.79238503 8.27864976 -28.25390625 7.21875 C-27.27292969 6.76371094 -26.29195313 6.30867187 -25.28125 5.83984375 C-17.00635365 2.31069598 -8.89928334 0.86370861 0 0 Z " fill="#000000" transform="translate(310.25390625,134.78125)"/>
<path d="M0 0 C2.4375 2.5625 2.4375 2.5625 4 5 C3.01 5.33 2.02 5.66 1 6 C0.649375 5.505 0.29875 5.01 -0.0625 4.5 C-2.94374289 2.26936034 -5.47009026 2.80019379 -9 3 C-9.77426109 5.80764728 -9.77426109 5.80764728 -10 9 C-8.68864588 11.36290685 -8.68864588 11.36290685 -7 13 C-3.18186553 12.72459296 -3.18186553 12.72459296 0 11 C-1.65 10.67 -3.3 10.34 -5 10 C-5 9.34 -5 8.68 -5 8 C-2.03 8 0.94 8 4 8 C3.65198447 10.57531492 3.29035995 12.54832896 1.875 14.75 C-1.00542572 16.67028381 -3.58483451 16.82025445 -7 17 C-10.39808026 15.89791992 -10.94731917 15.07902124 -13 12 C-13.6779661 4.88135593 -13.6779661 4.88135593 -11.125 1.5625 C-7.09518909 -1.40059626 -4.89516833 -1.18159236 0 0 Z " fill="#020202" transform="translate(197,341)"/>
<path d="M0 0 C6.93359375 -0.09765625 6.93359375 -0.09765625 9 0 C10.79726483 1.79726483 10.7534519 4.44549587 11.1875 6.875 C11.38730469 7.94492187 11.58710938 9.01484375 11.79296875 10.1171875 C12 13 12 13 10 16 C7.6171875 16.29296875 7.6171875 16.29296875 4.875 16.1875 C2.461875 16.0946875 2.461875 16.0946875 0 16 C0 10.72 0 5.44 0 0 Z M3 2 C3 3.32 3 4.64 3 6 C4.65 5.67 6.3 5.34 8 5 C7.67 4.01 7.34 3.02 7 2 C5.68 2 4.36 2 3 2 Z M3 9 C3 10.65 3 12.3 3 14 C4.98 13.67 6.96 13.34 9 13 C8.67 11.68 8.34 10.36 8 9 C6.35 9 4.7 9 3 9 Z " fill="#020202" transform="translate(285,341)"/>
<path d="M0 0 C2.875 0.9375 2.875 0.9375 4.25 3 C4.45625 3.639375 4.6625 4.27875 4.875 4.9375 C2.235 4.6075 -0.405 4.2775 -3.125 3.9375 C-3.125 4.5975 -3.125 5.2575 -3.125 5.9375 C-2.01125 6.35 -0.8975 6.7625 0.25 7.1875 C2.67684684 8.23601598 3.74920924 8.78151946 5.4375 10.875 C5.875 12.9375 5.875 12.9375 5.125 15.125 C3.875 16.9375 3.875 16.9375 1.875 17.9375 C-2.17642119 18.19610135 -3.66837669 18.24191554 -7.125 15.9375 C-7.125 14.9475 -7.125 13.9575 -7.125 12.9375 C-4.155 13.2675 -1.185 13.5975 1.875 13.9375 C1.875 13.2775 1.875 12.6175 1.875 11.9375 C1.30910156 11.70675781 0.74320313 11.47601563 0.16015625 11.23828125 C-2.05541285 10.25315123 -4.10157555 9.27646798 -6.125 7.9375 C-7.125 5.1875 -7.125 5.1875 -7.125 2.9375 C-4.60800773 0.51731512 -3.56129761 -0.07122595 0 0 Z " fill="#020202" transform="translate(250.125,340.0625)"/>
<path d="M0 0 C2.875 1 2.875 1 4.25 3.0625 C4.45625 3.701875 4.6625 4.34125 4.875 5 C3.885 5 2.895 5 1.875 5 C1.875 4.34 1.875 3.68 1.875 3 C0.225 3.33 -1.425 3.66 -3.125 4 C-3.125 4.66 -3.125 5.32 -3.125 6 C-2.55910156 6.14695312 -1.99320312 6.29390625 -1.41015625 6.4453125 C0.84911985 7.13619834 2.82618095 7.81748922 4.875 9 C5.875 12.1875 5.875 12.1875 5.875 15 C4.3125 16.5625 4.3125 16.5625 1.875 18 C-1.75 17.9375 -1.75 17.9375 -5.125 17 C-5.785 15.68 -6.445 14.36 -7.125 13 C-4.155 13.33 -1.185 13.66 1.875 14 C1.875 13.34 1.875 12.68 1.875 12 C1.30910156 11.75765625 0.74320312 11.5153125 0.16015625 11.265625 C-0.57332031 10.93046875 -1.30679687 10.5953125 -2.0625 10.25 C-2.79339844 9.92515625 -3.52429688 9.6003125 -4.27734375 9.265625 C-6.125 8 -6.125 8 -6.9765625 6.00390625 C-7.125 4 -7.125 4 -5.5625 1.6875 C-3.125 0 -3.125 0 0 0 Z " fill="#020202" transform="translate(311.125,340)"/>
<path d="M0 0 C8 0 8 0 11 2.125 C13 5 13 5 13.625 8 C12.762119 12.14182881 11.44150865 13.56226471 8 16 C5.36 16 2.72 16 0 16 C0 10.72 0 5.44 0 0 Z M2 2 C2 5.96 2 9.92 2 14 C6.47883696 13.55296014 6.47883696 13.55296014 10 11 C10.50010524 8.04230823 10.50010524 8.04230823 10 5 C8.34626504 3.00966359 8.34626504 3.00966359 6 2 C4.68 2 3.36 2 2 2 Z " fill="#030303" transform="translate(222,341)"/>
<path d="M0 0 C0.99 0 1.98 0 3 0 C3.33 3.96 3.66 7.92 4 12 C5.65 12.33 7.3 12.66 9 13 C10.81115956 11.18884044 10.38199448 8.38721773 10.5625 5.9375 C10.64628906 4.83277344 10.73007812 3.72804688 10.81640625 2.58984375 C10.87699219 1.73519531 10.93757813 0.88054687 11 0 C11.66 0 12.32 0 13 0 C13.10794277 2.26979665 13.18556176 4.54105196 13.25 6.8125 C13.29640625 8.07707031 13.3428125 9.34164063 13.390625 10.64453125 C13 14 13 14 11.17578125 15.94921875 C8.02114041 17.4727347 6.28015151 17.11664732 3 16 C-0.25682585 12.74317415 -0.1705542 9.57646186 -0.1875 5.1875 C-0.13951818 3.45786959 -0.08172652 1.72836466 0 0 Z " fill="#020202" transform="translate(263,341)"/>
<path d="M0 0 C0.66 0 1.32 0 2 0 C2 5.28 2 10.56 2 16 C1.34 16 0.68 16 0 16 C0 10.72 0 5.44 0 0 Z " fill="#030303" transform="translate(210,341)"/>
</svg>
